<?xml version="1.0"?>
<svg xmlns="http://www.w3.org/2000/svg" viewBox="0 0 64 64" width="512" height="512"><g id="Filled_outline" data-name="Filled outline"><rect x="3" y="3" width="4" height="58" style="fill:#f3bb59"/><rect x="57" y="3" width="4" height="58" style="fill:#f3bb59"/><rect x="11" y="39" width="20" height="14" style="fill:#73cac2"/><rect x="7" y="53" width="50" height="4" style="fill:#e97131"/><rect x="7" y="25" width="50" height="4" style="fill:#e97131"/><rect x="35" y="47" width="18" height="6" style="fill:#73cac2"/><rect x="41" y="33" width="12" height="14" style="fill:#3e8051"/><rect x="31" y="13" width="20" height="12" style="fill:#73cac2"/><rect x="13" y="7" width="6" height="18" style="fill:#4a9d86"/><rect x="19" y="7" width="6" height="18" style="fill:#3e8051"/><rect x="13" y="7" width="6" height="6" style="fill:#d3843d"/><rect x="19" y="7" width="6" height="6" style="fill:#66342e"/><rect x="29" y="9" width="24" height="4" style="fill:#d3843d"/><rect x="39" y="13" width="4" height="8" style="fill:#d3843d"/><rect x="39" y="9" width="4" height="4" style="fill:#66342e"/><rect x="41" y="33" width="12" height="4" style="fill:#73cac2"/><polygon points="21 47 11 39 31 39 21 47" style="fill:#d3843d"/><path d="M56,24H52V14h2V8H28v6h2V24H26V6H12V24H8V2H2V62H8V58H56v4h6V2H56ZM6,60H4V4H6ZM44,10h8v2H44Zm-4,0h2v2H40Zm0,4h2v6H40Zm4,8V14h6V24H32V14h6v8ZM30,10h8v2H30ZM20,8h4v4H20Zm0,6h4V24H20ZM14,8h4v4H14Zm0,6h4V24H14ZM56,56H8V54H56ZM20.375,47.781a1,1,0,0,0,1.25,0L30,41.081V52H12V41.081ZM13.851,40h14.3L21,45.72ZM52,38v8H42V38ZM42,36V34H52v2ZM52,48v4H36V48H52Zm4,4H54V32H40V46H34v6H32V38H10V52H8V30H56Zm0-24H8V26H56ZM58,4h2V60H58Z"/></g></svg>
